<?xml version="1.0" encoding="UTF-8" standalone="no"?>
<!-- Created with Inkscape (http://www.inkscape.org/) -->

<svg
   xmlns:dc="http://purl.org/dc/elements/1.1/"
   xmlns:cc="http://creativecommons.org/ns#"
   xmlns:rdf="http://www.w3.org/1999/02/22-rdf-syntax-ns#"
   xmlns:svg="http://www.w3.org/2000/svg"
   xmlns="http://www.w3.org/2000/svg"
   xmlns:sodipodi="http://sodipodi.sourceforge.net/DTD/sodipodi-0.dtd"
   xmlns:inkscape="http://www.inkscape.org/namespaces/inkscape"
   version="1.1"
   id="svg2"
   xml:space="preserve"
   width="1233.5642"
   height="340.23581"
   viewBox="0 0 1233.5643 340.23581"
   sodipodi:docname="logo-blue.svg"
   inkscape:version="0.92.3 (2405546, 2018-03-11)"><metadata
     id="metadata8"><rdf:RDF><cc:Work
         rdf:about=""><dc:format>image/svg+xml</dc:format><dc:type
           rdf:resource="http://purl.org/dc/dcmitype/StillImage" /><dc:title></dc:title></cc:Work></rdf:RDF></metadata><defs
     id="defs6"><clipPath
       clipPathUnits="userSpaceOnUse"
       id="clipPath18"><path
         d="M 0,595.28 H 841.89 V 0 H 0 Z"
         id="path16"
         inkscape:connector-curvature="0" /></clipPath></defs><sodipodi:namedview
     pagecolor="#ffffff"
     bordercolor="#666666"
     borderopacity="1"
     objecttolerance="10"
     gridtolerance="10"
     guidetolerance="10"
     inkscape:pageopacity="0"
     inkscape:pageshadow="2"
     inkscape:window-width="1853"
     inkscape:window-height="1025"
     id="namedview4"
     showgrid="false"
     showguides="false"
     inkscape:guide-bbox="true"
     inkscape:zoom="0.84100191"
     inkscape:cx="566.85494"
     inkscape:cy="160.41973"
     inkscape:window-x="67"
     inkscape:window-y="27"
     inkscape:window-maximized="1"
     inkscape:current-layer="text22"><sodipodi:guide
       position="342.69455,175.15703"
       orientation="0,1"
       id="guide61"
       inkscape:locked="false" /><sodipodi:guide
       position="435.18155,257.55455"
       orientation="0,1"
       id="guide65"
       inkscape:locked="false" /><sodipodi:guide
       position="589.0463,79.306855"
       orientation="0,1"
       id="guide67"
       inkscape:locked="false" /><sodipodi:guide
       position="933.63907,340.23583"
       orientation="0,1"
       id="guide19"
       inkscape:locked="false" /><sodipodi:guide
       position="354.56781,-3.4019312"
       orientation="0,1"
       id="guide21"
       inkscape:locked="false" /></sodipodi:namedview><g
     id="g10"
     inkscape:groupmode="layer"
     inkscape:label="bit song logo (1)"
     transform="matrix(1.3333333,0,0,-1.3333333,106.43228,437.49508)"><g
   aria-label="explorer"
   transform="matrix(1.0055905,-0.0075122,-0.00759745,-0.99438383,0,0)"
   style="font-variant:normal;font-weight:normal;font-stretch:normal;font-size:163.02828979px;font-family:'Neon 80s';-inkscape-font-specification:Neon80s;writing-mode:lr-tb;fill:#1976d2;fill-opacity:1;fill-rule:nonzero;stroke:none;stroke-width:0.99441224"
   id="text22"><path
     d="m 295.39901,-230.04004 q -4.3782,-1.99009 -9.63204,-1.99009 -9.79125,0 -16.71677,6.92552 -6.92551,6.84591 -6.92551,16.63716 0,9.79125 6.92551,16.71677 6.92552,6.92552 16.71677,6.92552 9.71165,0 16.63717,-6.84592 0.0796,-0.0796 0.1592,-0.1592 2.30851,-2.30851 5.65186,-2.30851 3.34336,0 5.73147,2.38811 2.38811,2.30851 2.38811,5.65186 0,3.34335 -2.38811,5.73146 -0.0796,0.0796 -0.15921,0.15921 -11.54253,11.54253 -28.02049,11.54253 -16.47796,0 -28.10009,-11.62213 -11.62213,-11.62214 -11.62213,-28.10009 0,-16.47796 11.62213,-28.10009 11.62213,-11.62214 28.10009,-11.62214 16.47796,0 28.02049,11.54253 l -0.0796,0.0796 q 0,0.0796 0.0796,0.0796 2.30851,2.3085 2.30851,5.65186 0,3.26375 -2.30851,5.57225 l -22.76665,22.60744 q -2.38811,2.30851 -5.73146,2.30851 -3.42296,0 -5.81107,-2.30851 -2.3085,-2.38811 -2.3085,-5.81106 0,-3.34336 2.3085,-5.73147 z"
     style="fill:#1976d2;fill-opacity:1;stroke-width:0.99441224"
     id="path825" /><path
     d="m 361.86807,-208.46745 -26.26921,-26.1896 q -2.30851,-2.30851 -2.30851,-5.65186 0,-3.26375 2.30851,-5.57226 2.38811,-2.38811 5.65186,-2.38811 3.34335,0 5.65186,2.30851 l 26.2692,26.1896 26.11,-26.11 0.0796,-0.0796 q 2.3085,-2.30851 5.57225,-2.30851 3.34336,0 5.65186,2.38811 2.30851,2.30851 2.30851,5.57226 0,3.34335 -2.30851,5.65186 -0.31841,0.31841 -0.71643,0.63683 l -25.47317,25.55277 26.1896,26.18961 q 2.30851,2.38811 2.30851,5.65186 0,3.34335 -2.30851,5.65186 -2.3085,2.3085 -5.65186,2.3085 -3.26375,0 -5.65186,-2.3085 l -26.1896,-26.18961 -26.0304,26.11 q -2.2289,2.38811 -5.81106,2.38811 -3.26375,0 -5.65186,-2.3085 -2.30851,-2.30851 -2.30851,-5.65186 0,-3.26375 2.38811,-5.65186 z"
     style="fill:#1976d2;fill-opacity:1;stroke-width:0.99441224"
     id="path827" /><path
     d="m 445.2927,-210.05952 q 0.0796,0.71643 0.0796,1.43287 v 3.02493 q 0.87564,7.96037 6.76631,13.85104 6.92552,6.92552 16.71677,6.92552 9.79125,0 16.63717,-6.92552 6.92551,-6.92552 6.92551,-16.71677 0,-9.79125 -6.92551,-16.63716 -6.84592,-6.92552 -16.63717,-6.92552 -9.79125,0 -16.71677,6.84591 -6.36829,6.3683 -6.84591,15.1247 z m -16.15954,1.27366 q 0.1592,-16.23915 11.62213,-27.70207 11.62213,-11.62214 28.10009,-11.62214 16.47796,0 28.10009,11.62214 11.62214,11.62213 11.62214,28.10009 0,16.47795 -11.62214,28.10009 -11.62213,11.62213 -28.10009,11.62213 -13.29381,0 -23.48308,-7.64195 v 31.36384 q 0,3.34335 -2.38811,5.73146 -2.38811,2.38811 -5.73146,2.38811 -3.34335,0 -5.73146,-2.38811 -2.38811,-2.38811 -2.38811,-5.73146 z"
     style="fill:#1976d2;fill-opacity:1;stroke-width:0.99441224"
     id="path829" /><path
     d="m 533.09553,-271.67275 q 3.34336,0 5.73147,2.38811 2.38811,2.38811 2.38811,5.73146 v 86.76799 q 0,3.34335 -2.38811,5.73146 -2.38811,2.38811 -5.73147,2.38811 -3.34335,0 -5.73146,-2.38811 -2.38811,-2.38811 -2.38811,-5.73146 v -86.76799 q 0,-3.34335 2.38811,-5.73146 2.38811,-2.38811 5.73146,-2.38811 z"
     style="fill:#1976d2;fill-opacity:1;stroke-width:0.99441224"
     id="path831" /><path
     d="m 596.53965,-248.11007 q 16.47795,0 28.10009,11.62214 11.62213,11.62213 11.62213,28.10009 0,16.47795 -11.62213,28.10009 -11.62214,11.62213 -28.10009,11.62213 -16.47796,0 -28.10009,-11.62213 -11.62214,-11.62214 -11.62214,-28.10009 0,-16.47796 11.62214,-28.10009 11.62213,-11.62214 28.10009,-11.62214 z m 0,16.07994 q -9.79125,0 -16.71677,6.92552 -6.92552,6.84591 -6.92552,16.63716 0,9.79125 6.92552,16.71677 6.92552,6.92552 16.71677,6.92552 9.79125,0 16.63716,-6.92552 6.92552,-6.92552 6.92552,-16.71677 0,-9.79125 -6.92552,-16.63716 -6.84591,-6.92552 -16.63716,-6.92552 z"
     style="fill:#1976d2;fill-opacity:1;stroke-width:0.99441224"
     id="path833" /><path
     d="m 692.46205,-248.26928 q 3.34336,0 5.73147,2.38811 2.38811,2.38811 2.38811,5.73147 0,3.34335 -2.38811,5.73146 -2.38811,2.38811 -5.73147,2.38811 h -0.0796 q -9.79125,0 -16.71677,6.92552 -6.36829,6.28869 -6.84591,15.04509 0.0796,0.71643 0.0796,1.43287 v 30.72701 q 0,4.4578 -2.38811,6.84591 -2.38811,2.38811 -5.73146,2.38811 -3.34336,0 -5.73146,-2.38811 -2.38811,-2.38811 -2.38811,-7.00512 v -30.72701 q 0.1592,-16.23915 11.62213,-27.70207 10.9853,-10.98531 28.17969,-11.78135 z"
     style="fill:#1976d2;fill-opacity:1;stroke-width:0.99441224"
     id="path835" /><path
     d="m 752.96084,-230.04004 q -4.3782,-1.99009 -9.63204,-1.99009 -9.79125,0 -16.71677,6.92552 -6.92552,6.84591 -6.92552,16.63716 0,9.79125 6.92552,16.71677 6.92552,6.92552 16.71677,6.92552 9.71165,0 16.63716,-6.84592 0.0796,-0.0796 0.15921,-0.1592 2.30851,-2.30851 5.65186,-2.30851 3.34336,0 5.73146,2.38811 2.38811,2.30851 2.38811,5.65186 0,3.34335 -2.38811,5.73146 -0.0796,0.0796 -0.1592,0.15921 -11.54253,11.54253 -28.02049,11.54253 -16.47796,0 -28.10009,-11.62213 -11.62213,-11.62214 -11.62213,-28.10009 0,-16.47796 11.62213,-28.10009 11.62213,-11.62214 28.10009,-11.62214 16.47796,0 28.02049,11.54253 l -0.0796,0.0796 q 0,0.0796 0.0796,0.0796 2.3085,2.3085 2.3085,5.65186 0,3.26375 -2.3085,5.57225 l -22.76665,22.60744 q -2.38811,2.30851 -5.73146,2.30851 -3.42296,0 -5.81107,-2.30851 -2.3085,-2.38811 -2.3085,-5.81106 0,-3.34336 2.3085,-5.73147 z"
     style="fill:#1976d2;fill-opacity:1;stroke-width:0.99441224"
     id="path837" /><path
     d="m 830.65401,-248.26928 q 3.34335,0 5.73146,2.38811 2.38811,2.38811 2.38811,5.73147 0,3.34335 -2.38811,5.73146 -2.38811,2.38811 -5.73146,2.38811 h -0.0796 q -9.79125,0 -16.71677,6.92552 -6.36829,6.28869 -6.84592,15.04509 0.0796,0.71643 0.0796,1.43287 v 30.72701 q 0,4.4578 -2.38811,6.84591 -2.38811,2.38811 -5.73147,2.38811 -3.34335,0 -5.73146,-2.38811 -2.38811,-2.38811 -2.38811,-7.00512 v -30.72701 q 0.15921,-16.23915 11.62213,-27.70207 10.98531,-10.98531 28.1797,-11.78135 z"
     style="fill:#1976d2;fill-opacity:1;stroke-width:0.99441224"
     id="path839" /></g>

<g
   id="g24"
   transform="matrix(1.455822,0,0,1.4746187,96.596666,154.48054)"><path
     d="m 0,0 c 0,-1.964 -1.592,-3.556 -3.556,-3.556 h -7.829 c -1.963,0 -3.554,1.592 -3.554,3.556 v 44.927 c 0,1.964 1.591,3.556 3.554,3.556 h 7.829 C -1.592,48.483 0,46.891 0,44.927 Z m -17.738,-9.813 c 0,-1.964 -1.592,-3.556 -3.556,-3.556 h -7.829 c -1.964,0 -3.556,1.592 -3.556,3.556 v 65.171 c 0,1.964 1.592,3.556 3.556,3.556 h 7.829 c 1.964,0 3.556,-1.592 3.556,-3.556 z m -17.689,5.035 c 0,-1.963 -1.592,-3.555 -3.555,-3.555 h -7.83 c -1.963,0 -3.555,1.592 -3.555,3.555 v 54.772 c 0,1.964 1.592,3.555 3.555,3.555 h 7.83 c 1.963,0 3.555,-1.591 3.555,-3.555 z m 1.743,122.531 c -6.72,0 -13.263,-0.751 -19.548,-2.17 0.07,-0.281 0.119,-0.571 0.119,-0.874 V 7.878 c 0,-2.248 -1.822,-4.07 -4.07,-4.07 h -7.913 c -1.722,0 -3.117,1.396 -3.117,3.117 V 110.75 c -31.153,-13.245 -52.97,-43.861 -52.97,-79.52 0,-47.785 39.175,-86.523 87.499,-86.523 48.325,0 87.498,38.738 87.498,86.523 0,47.786 -39.173,86.523 -87.498,86.523"
     style="fill:#1976d2;fill-opacity:1;fill-rule:nonzero;stroke:none"
     id="path26"
     inkscape:connector-curvature="0" /></g><path
   transform="scale(1,-1)"
   style="fill:#1976d2;fill-opacity:1;stroke-width:0.53621131"
   d="m 214.44229,-266.11035 h 2.52237 v 133.68577 h -2.52237 z"
   id="rect63" /></g></svg>