<?xml version="1.0" encoding="UTF-8" standalone="no"?>
<!-- Created with Inkscape (http://www.inkscape.org/) -->

<svg
   xmlns:dc="http://purl.org/dc/elements/1.1/"
   xmlns:cc="http://creativecommons.org/ns#"
   xmlns:rdf="http://www.w3.org/1999/02/22-rdf-syntax-ns#"
   xmlns:svg="http://www.w3.org/2000/svg"
   xmlns="http://www.w3.org/2000/svg"
   xmlns:sodipodi="http://sodipodi.sourceforge.net/DTD/sodipodi-0.dtd"
   xmlns:inkscape="http://www.inkscape.org/namespaces/inkscape"
   version="1.1"
   id="svg2"
   xml:space="preserve"
   width="1505.8585"
   height="340.23581"
   viewBox="0 0 1505.8586 340.23581"
   sodipodi:docname="logo-white.svg"
   inkscape:version="0.92.3 (2405546, 2018-03-11)"><metadata
     id="metadata8"><rdf:RDF><cc:Work
         rdf:about=""><dc:format>image/svg+xml</dc:format><dc:type
           rdf:resource="http://purl.org/dc/dcmitype/StillImage" /><dc:title /></cc:Work></rdf:RDF></metadata><defs
     id="defs6"><clipPath
       clipPathUnits="userSpaceOnUse"
       id="clipPath18"><path
         d="M 0,595.28 H 841.89 V 0 H 0 Z"
         id="path16"
         inkscape:connector-curvature="0" /></clipPath></defs><sodipodi:namedview
     pagecolor="#ffffff"
     bordercolor="#666666"
     borderopacity="1"
     objecttolerance="10"
     gridtolerance="10"
     guidetolerance="10"
     inkscape:pageopacity="0"
     inkscape:pageshadow="2"
     inkscape:window-width="1853"
     inkscape:window-height="1025"
     id="namedview4"
     showgrid="false"
     showguides="true"
     inkscape:guide-bbox="true"
     inkscape:zoom="1.6820038"
     inkscape:cx="6267.4101"
     inkscape:cy="-4.6002474"
     inkscape:window-x="67"
     inkscape:window-y="27"
     inkscape:window-maximized="1"
     inkscape:current-layer="g10"><sodipodi:guide
       position="342.69454,175.15703"
       orientation="0,1"
       id="guide61"
       inkscape:locked="false" /><sodipodi:guide
       position="548.75025,288.34656"
       orientation="0,1"
       id="guide65"
       inkscape:locked="false" /><sodipodi:guide
       position="487.51376,49.345911"
       orientation="0,1"
       id="guide67"
       inkscape:locked="false" /><sodipodi:guide
       position="933.63905,340.23583"
       orientation="0,1"
       id="guide19"
       inkscape:locked="false" /><sodipodi:guide
       position="354.5678,-3.4019255"
       orientation="0,1"
       id="guide21"
       inkscape:locked="false" /><sodipodi:guide
       position="217.59761,227.11007"
       orientation="0,1"
       id="guide824"
       inkscape:locked="false" /><sodipodi:guide
       position="391.20008,123.66203"
       orientation="0,1"
       id="guide826"
       inkscape:locked="false" /></sodipodi:namedview><g
     inkscape:groupmode="layer"
     id="layer1"
     inkscape:label="bit song logo (1) 1" /><g
     id="g10"
     inkscape:groupmode="layer"
     inkscape:label="bit song logo (1)"
     transform="matrix(1.3333333,0,0,-1.3333333,106.43228,437.49508)"><g
   aria-label="explorer"
   transform="matrix(1.0055905,-0.0075122,-0.00759745,-0.99438383,0,0)"
   style="font-variant:normal;font-weight:normal;font-stretch:normal;font-size:218.82969666px;font-family:'Neon 80s';-inkscape-font-specification:Neon80s;writing-mode:lr-tb;fill:#ffffff;fill-opacity:1;fill-rule:nonzero;stroke:none;stroke-width:1.33478022"
   id="text22"><path
     d="m 312.3795,-239.46804 q -5.87677,-2.67126 -12.9289,-2.67126 -13.1426,0 -22.43859,9.29599 -9.29599,9.18914 -9.29599,22.33174 0,13.14261 9.29599,22.43859 9.29599,9.29599 22.43859,9.29599 13.03575,0 22.33174,-9.18914 0.10685,-0.10685 0.2137,-0.2137 3.09867,-3.09866 7.58639,-3.09866 4.48771,0 7.69323,3.20551 3.20551,3.09867 3.20551,7.58638 0,4.48772 -3.20551,7.69324 -0.10685,0.10685 -0.2137,0.2137 -15.49332,15.49331 -37.61136,15.49331 -22.11804,0 -37.7182,-15.60016 -15.60017,-15.60017 -15.60017,-37.71821 0,-22.11804 15.60017,-37.7182 15.60016,-15.60017 37.7182,-15.60017 22.11804,0 37.61136,15.49332 l -0.10685,0.10685 q 0,0.10685 0.10685,0.10685 3.09866,3.09866 3.09866,7.58638 0,4.38087 -3.09866,7.47953 l -30.55923,30.34552 q -3.20551,3.09867 -7.69323,3.09867 -4.59457,0 -7.80008,-3.09867 -3.09867,-3.20551 -3.09867,-7.80008 0,-4.48772 3.09867,-7.69323 z"
     style="fill:#ffffff;fill-opacity:1;stroke-width:1.33478022"
     id="path23" /><path
     d="m 401.59962,-210.51157 -35.26065,-35.15379 q -3.09866,-3.09867 -3.09866,-7.58638 0,-4.38087 3.09866,-7.47953 3.20552,-3.20552 7.58638,-3.20552 4.48772,0 7.58639,3.09867 l 35.26064,35.15379 35.04694,-35.04694 0.10685,-0.10685 q 3.09867,-3.09867 7.47954,-3.09867 4.48771,0 7.58638,3.20552 3.09866,3.09866 3.09866,7.47953 0,4.48771 -3.09866,7.58638 -0.42741,0.4274 -0.96166,0.8548 l -34.19214,34.29899 35.1538,35.1538 q 3.09866,3.20551 3.09866,7.58638 0,4.48772 -3.09866,7.58638 -3.09867,3.09866 -7.58638,3.09866 -4.38087,0 -7.58639,-3.09866 l -35.15379,-35.1538 -34.94009,35.04695 q -2.99182,3.20551 -7.80009,3.20551 -4.38086,0 -7.58638,-3.09866 -3.09866,-3.09866 -3.09866,-7.58638 0,-4.38087 3.20551,-7.58638 z"
     style="fill:#ffffff;fill-opacity:1;stroke-width:1.33478022"
     id="path25" /><path
     d="m 513.57888,-212.64858 q 0.10685,0.96166 0.10685,1.92331 v 4.06032 q 1.17536,10.68504 9.08229,18.59197 9.29599,9.29599 22.43859,9.29599 13.14261,0 22.33175,-9.29599 9.29598,-9.29598 9.29598,-22.43859 0,-13.1426 -9.29598,-22.33174 -9.18914,-9.29599 -22.33175,-9.29599 -13.1426,0 -22.43859,9.18914 -8.54803,8.54803 -9.18914,20.30158 z m -21.69063,1.70961 q 0.2137,-21.79749 15.60016,-37.18395 15.60016,-15.60017 37.7182,-15.60017 22.11804,0 37.71821,15.60017 15.60016,15.60016 15.60016,37.7182 0,22.11804 -15.60016,37.71821 -15.60017,15.60016 -37.71821,15.60016 -17.84402,0 -31.52088,-10.25764 v 42.09907 q 0,4.48772 -3.20551,7.69323 -3.20551,3.20552 -7.69323,3.20552 -4.48772,0 -7.69323,-3.20552 -3.20551,-3.20551 -3.20551,-7.69323 z"
     style="fill:#ffffff;fill-opacity:1;stroke-width:1.33478022"
     id="path27" /><path
     d="m 631.43491,-295.35082 q 4.48772,0 7.69323,3.20552 3.20551,3.20551 3.20551,7.69323 v 116.46698 q 0,4.48771 -3.20551,7.69323 -3.20551,3.20551 -7.69323,3.20551 -4.48772,0 -7.69323,-3.20551 -3.20552,-3.20552 -3.20552,-7.69323 v -116.46698 q 0,-4.48772 3.20552,-7.69323 3.20551,-3.20552 7.69323,-3.20552 z"
     style="fill:#ffffff;fill-opacity:1;stroke-width:1.33478022"
     id="path29" /><path
     d="m 716.59471,-263.72309 q 22.11804,0 37.7182,15.60017 15.60016,15.60016 15.60016,37.7182 0,22.11804 -15.60016,37.71821 -15.60016,15.60016 -37.7182,15.60016 -22.11805,0 -37.71821,-15.60016 -15.60016,-15.60017 -15.60016,-37.71821 0,-22.11804 15.60016,-37.7182 15.60016,-15.60017 37.71821,-15.60017 z m 0,21.58379 q -13.14261,0 -22.4386,9.29599 -9.29598,9.18914 -9.29598,22.33174 0,13.14261 9.29598,22.43859 9.29599,9.29599 22.4386,9.29599 13.1426,0 22.33174,-9.29599 9.29599,-9.29598 9.29599,-22.43859 0,-13.1426 -9.29599,-22.33174 -9.18914,-9.29599 -22.33174,-9.29599 z"
     style="fill:#ffffff;fill-opacity:1;stroke-width:1.33478022"
     id="path31" /><path
     d="m 845.34951,-263.93679 q 4.48771,0 7.69323,3.20552 3.20551,3.20551 3.20551,7.69323 0,4.48772 -3.20551,7.69323 -3.20552,3.20551 -7.69323,3.20551 h -0.10686 q -13.1426,0 -22.43859,9.29599 -8.54803,8.44118 -9.18913,20.19473 0.10685,0.96166 0.10685,1.92331 v 41.24427 q 0,5.98362 -3.20552,9.18914 -3.20551,3.20551 -7.69323,3.20551 -4.48772,0 -7.69323,-3.20551 -3.20551,-3.20552 -3.20551,-9.40284 v -41.24427 q 0.2137,-21.79749 15.60016,-37.18395 14.74536,-14.74536 37.82506,-15.81387 z"
     style="fill:#ffffff;fill-opacity:1;stroke-width:1.33478022"
     id="path33" /><path
     d="m 926.55584,-239.46804 q -5.87678,-2.67126 -12.92891,-2.67126 -13.1426,0 -22.43859,9.29599 -9.29599,9.18914 -9.29599,22.33174 0,13.14261 9.29599,22.43859 9.29599,9.29599 22.43859,9.29599 13.03576,0 22.33174,-9.18914 0.10685,-0.10685 0.2137,-0.2137 3.09867,-3.09866 7.58639,-3.09866 4.48771,0 7.69323,3.20551 3.20551,3.09867 3.20551,7.58638 0,4.48772 -3.20551,7.69324 -0.10685,0.10685 -0.2137,0.2137 -15.49332,15.49331 -37.61136,15.49331 -22.11804,0 -37.7182,-15.60016 -15.60017,-15.60017 -15.60017,-37.71821 0,-22.11804 15.60017,-37.7182 15.60016,-15.60017 37.7182,-15.60017 22.11804,0 37.61136,15.49332 l -0.10685,0.10685 q 0,0.10685 0.10685,0.10685 3.09866,3.09866 3.09866,7.58638 0,4.38087 -3.09866,7.47953 l -30.55923,30.34552 q -3.20551,3.09867 -7.69323,3.09867 -4.59457,0 -7.80008,-3.09867 -3.09867,-3.20551 -3.09867,-7.80008 0,-4.48772 3.09867,-7.69323 z"
     style="fill:#ffffff;fill-opacity:1;stroke-width:1.33478022"
     id="path35" /><path
     d="m 1030.8419,-263.93679 q 4.4877,0 7.6932,3.20552 3.2055,3.20551 3.2055,7.69323 0,4.48772 -3.2055,7.69323 -3.2055,3.20551 -7.6932,3.20551 h -0.1069 q -13.1426,0 -22.4386,9.29599 -8.548,8.44118 -9.1891,20.19473 0.10685,0.96166 0.10685,1.92331 v 41.24427 q 0,5.98362 -3.20552,9.18914 -3.20551,3.20551 -7.69323,3.20551 -4.48772,0 -7.69323,-3.20551 -3.20551,-3.20552 -3.20551,-9.40284 v -41.24427 q 0.2137,-21.79749 15.60016,-37.18395 14.74538,-14.74536 37.82508,-15.81387 z"
     style="fill:#ffffff;fill-opacity:1;stroke-width:1.33478022"
     id="path37" /></g>


<g
   id="g24"
   transform="matrix(1.455822,0,0,1.4746187,96.596666,154.48054)"
   style="fill:#ffffff;fill-opacity:1"><path
     d="m 0,0 c 0,-1.964 -1.592,-3.556 -3.556,-3.556 h -7.829 c -1.963,0 -3.554,1.592 -3.554,3.556 v 44.927 c 0,1.964 1.591,3.556 3.554,3.556 h 7.829 C -1.592,48.483 0,46.891 0,44.927 Z m -17.738,-9.813 c 0,-1.964 -1.592,-3.556 -3.556,-3.556 h -7.829 c -1.964,0 -3.556,1.592 -3.556,3.556 v 65.171 c 0,1.964 1.592,3.556 3.556,3.556 h 7.829 c 1.964,0 3.556,-1.592 3.556,-3.556 z m -17.689,5.035 c 0,-1.963 -1.592,-3.555 -3.555,-3.555 h -7.83 c -1.963,0 -3.555,1.592 -3.555,3.555 v 54.772 c 0,1.964 1.592,3.555 3.555,3.555 h 7.83 c 1.963,0 3.555,-1.591 3.555,-3.555 z m 1.743,122.531 c -6.72,0 -13.263,-0.751 -19.548,-2.17 0.07,-0.281 0.119,-0.571 0.119,-0.874 V 7.878 c 0,-2.248 -1.822,-4.07 -4.07,-4.07 h -7.913 c -1.722,0 -3.117,1.396 -3.117,3.117 V 110.75 c -31.153,-13.245 -52.97,-43.861 -52.97,-79.52 0,-47.785 39.175,-86.523 87.499,-86.523 48.325,0 87.498,38.738 87.498,86.523 0,47.786 -39.173,86.523 -87.498,86.523"
     style="fill:#ffffff;fill-opacity:1;fill-rule:nonzero;stroke:none"
     id="path26"
     inkscape:connector-curvature="0" /></g><path
   transform="scale(1,-1)"
   style="fill:#ffffff;fill-opacity:1;stroke-width:0.62090272"
   d="m 214.44229,-289.20438 h 2.52237 v 179.25049 h -2.52237 z"
   id="rect63" /></g></svg>