<?xml version="1.0" encoding="UTF-8" standalone="no"?>
<!-- Created with Inkscape (http://www.inkscape.org/) -->

<svg
   xmlns:dc="http://purl.org/dc/elements/1.1/"
   xmlns:cc="http://creativecommons.org/ns#"
   xmlns:rdf="http://www.w3.org/1999/02/22-rdf-syntax-ns#"
   xmlns:svg="http://www.w3.org/2000/svg"
   xmlns="http://www.w3.org/2000/svg"
   xmlns:sodipodi="http://sodipodi.sourceforge.net/DTD/sodipodi-0.dtd"
   xmlns:inkscape="http://www.inkscape.org/namespaces/inkscape"
   version="1.1"
   id="svg2"
   xml:space="preserve"
   width="217.92168"
   height="60.110111"
   viewBox="0 0 217.92169 60.110111"
   sodipodi:docname="logo-white.svg"
   inkscape:version="0.92.3 (2405546, 2018-03-11)"><metadata
     id="metadata8"><rdf:RDF><cc:Work
         rdf:about=""><dc:format>image/svg+xml</dc:format><dc:type
           rdf:resource="http://purl.org/dc/dcmitype/StillImage" /><dc:title></dc:title></cc:Work></rdf:RDF></metadata><defs
     id="defs6"><clipPath
       clipPathUnits="userSpaceOnUse"
       id="clipPath18"><path
         d="M 0,595.28 H 841.89 V 0 H 0 Z"
         id="path16"
         inkscape:connector-curvature="0" /></clipPath></defs><sodipodi:namedview
     pagecolor="#ffffff"
     bordercolor="#666666"
     borderopacity="1"
     objecttolerance="10"
     gridtolerance="10"
     guidetolerance="10"
     inkscape:pageopacity="0"
     inkscape:pageshadow="2"
     inkscape:window-width="1853"
     inkscape:window-height="1025"
     id="namedview4"
     showgrid="false"
     showguides="false"
     inkscape:guide-bbox="true"
     inkscape:zoom="6.7280153"
     inkscape:cx="108.9657"
     inkscape:cy="21.173543"
     inkscape:window-x="67"
     inkscape:window-y="27"
     inkscape:window-maximized="1"
     inkscape:current-layer="text22"><sodipodi:guide
       position="342.47813,175.15704"
       orientation="0,1"
       id="guide61"
       inkscape:locked="false" /><sodipodi:guide
       position="434.96513,257.55456"
       orientation="0,1"
       id="guide65"
       inkscape:locked="false" /><sodipodi:guide
       position="588.82988,79.306862"
       orientation="0,1"
       id="guide67"
       inkscape:locked="false" /><sodipodi:guide
       position="933.42265,340.23583"
       orientation="0,1"
       id="guide19"
       inkscape:locked="false" /><sodipodi:guide
       position="354.35139,-3.4019234"
       orientation="0,1"
       id="guide21"
       inkscape:locked="false" /></sodipodi:namedview><g
     id="g10"
     inkscape:groupmode="layer"
     inkscape:label="bit song logo (1)"
     transform="matrix(1.3333333,0,0,-1.3333333,106.21587,157.36938)"><g
   aria-label="explorer"
   transform="matrix(1.0055905,-0.0075122,-0.00759745,-0.99438383,0,0)"
   style="font-variant:normal;font-weight:normal;font-stretch:normal;font-size:163.02828979px;font-family:'Neon 80s';-inkscape-font-specification:Neon80s;writing-mode:lr-tb;fill:#1976d2;fill-opacity:1;fill-rule:nonzero;stroke:none;stroke-width:0.99441224"
   id="text22"><path
     d="m -13.458585,-100.54209 q -0.773505,-0.35159 -1.701711,-0.35159 -1.729839,0 -2.953384,1.223548 -1.223543,1.209481 -1.223543,2.939319 0,1.729839 1.223543,2.953385 1.223545,1.223545 2.953384,1.223545 1.715776,0 2.939321,-1.209482 0.01406,-0.01407 0.02813,-0.02813 0.407849,-0.407849 0.998525,-0.407849 0.590678,0 1.012589,0.421912 0.4219118,0.40785 0.4219118,0.998526 0,0.590675 -0.4219118,1.012587 -0.01407,0.01407 -0.02813,0.02813 -2.039241,2.039241 -4.950434,2.039241 -2.911193,0 -4.964497,-2.053304 -2.053303,-2.053307 -2.053303,-4.964497 0,-2.911193 2.053303,-4.964501 2.053304,-2.0533 4.964497,-2.0533 2.911193,0 4.950434,2.03924 l -0.01407,0.0141 q 0,0.014 0.01407,0.014 0.4078488,0.40784 0.4078488,0.99852 0,0.57661 -0.4078488,0.98446 l -4.022228,3.9941 q -0.421912,0.407849 -1.012588,0.407849 -0.604741,0 -1.026653,-0.407849 -0.407847,-0.421912 -0.407847,-1.026651 0,-0.590678 0.407847,-1.01259 z"
     style="fill:#ffffff;fill-opacity:1;stroke-width:0.17568472"
     id="path825"
     inkscape:connector-curvature="0" /><path
     d="m -1.7153689,-96.730813 -4.6410317,-4.626967 q -0.4078489,-0.40785 -0.4078489,-0.99852 0,-0.57662 0.4078489,-0.98447 0.421912,-0.42191 0.9985249,-0.42191 0.5906761,0 0.998525,0.40785 l 4.64102983,4.626968 4.61290387,-4.612908 0.014063,-0.014 q 0.4078471,-0.40785 0.98446,-0.40785 0.5906779,0 0.998525,0.42191 0.4078489,0.40785 0.4078489,0.98447 0,0.59067 -0.4078489,0.99852 -0.056254,0.0563 -0.126573,0.11251 l -4.5003939,4.514458 4.6269669,4.626968 q 0.4078489,0.421912 0.4078489,0.998526 0,0.590676 -0.4078489,0.998524 -0.4078471,0.407848 -0.998525,0.407848 -0.5766129,0 -0.9985249,-0.407848 l -4.62696687,-4.626968 -4.59884063,4.612904 q -0.3937841,0.421912 -1.0266511,0.421912 -0.576613,0 -0.998525,-0.407848 -0.4078488,-0.407848 -0.4078488,-0.998524 0,-0.576614 0.4219119,-0.998526 z"
     style="fill:#ffffff;fill-opacity:1;stroke-width:0.17568472"
     id="path827"
     inkscape:connector-curvature="0" /><path
     d="m 13.023421,-97.012087 q 0.01406,0.126574 0.01406,0.253148 v 0.534421 q 0.154701,1.406374 1.195417,2.44709 1.223545,1.223545 2.953384,1.223545 1.729839,0 2.939321,-1.223545 1.223543,-1.223546 1.223543,-2.953385 0,-1.729838 -1.223543,-2.939319 -1.209482,-1.223548 -2.939321,-1.223548 -1.729839,0 -2.953384,1.209484 -1.125098,1.1251 -1.20948,2.672109 z m -2.854938,0.225021 q 0.02813,-2.869002 2.053305,-4.894184 2.053304,-2.0533 4.964497,-2.0533 2.911192,0 4.964497,2.0533 2.053305,2.05331 2.053305,4.964503 0,2.91119 -2.053305,4.964497 -2.053305,2.053304 -4.964497,2.053304 -2.348643,0 -4.148801,-1.350118 v 5.541109 q 0,0.590677 -0.421913,1.012589 -0.421912,0.421911 -1.012587,0.421911 -0.590677,0 -1.012589,-0.421911 -0.421912,-0.421912 -0.421912,-1.012589 z"
     style="fill:#ffffff;fill-opacity:1;stroke-width:0.17568472"
     id="path829"
     inkscape:connector-curvature="0" /><path
     d="m 28.535715,-107.89741 q 0.590678,0 1.01259,0.42191 0.421912,0.42191 0.421912,1.01259 v 15.329463 q 0,0.590677 -0.421912,1.012589 -0.421912,0.421912 -1.01259,0.421912 -0.590676,0 -1.012588,-0.421912 -0.421912,-0.421912 -0.421912,-1.012589 v -15.329463 q 0,-0.59068 0.421912,-1.01259 0.421912,-0.42191 1.012588,-0.42191 z"
     style="fill:#ffffff;fill-opacity:1;stroke-width:0.17568472"
     id="path831"
     inkscape:connector-curvature="0" /><path
     d="m 39.744509,-103.73455 q 2.911191,0 4.964497,2.0533 2.053305,2.05331 2.053305,4.964503 0,2.91119 -2.053305,4.964497 -2.053306,2.053304 -4.964497,2.053304 -2.911193,0 -4.964496,-2.053304 -2.053306,-2.053307 -2.053306,-4.964497 0,-2.911193 2.053306,-4.964503 2.053303,-2.0533 4.964496,-2.0533 z m 0,2.84087 q -1.729839,0 -2.953384,1.223548 -1.223544,1.209481 -1.223544,2.939319 0,1.729839 1.223544,2.953385 1.223545,1.223545 2.953384,1.223545 1.729839,0 2.939319,-1.223545 1.223545,-1.223546 1.223545,-2.953385 0,-1.729838 -1.223545,-2.939319 -1.20948,-1.223548 -2.939319,-1.223548 z"
     style="fill:#ffffff;fill-opacity:1;stroke-width:0.17568472"
     id="path833"
     inkscape:connector-curvature="0" /><path
     d="m 56.691304,-103.76268 q 0.590677,0 1.012589,0.42191 0.421912,0.42191 0.421912,1.0126 0,0.59067 -0.421912,1.01258 -0.421912,0.42191 -1.012589,0.42191 h -0.01407 q -1.729839,0 -2.953384,1.223548 -1.125098,1.111036 -1.209481,2.658045 0.01407,0.126574 0.01407,0.253148 v 5.428601 q 0,0.787568 -0.421913,1.20948 -0.421911,0.421912 -1.012587,0.421912 -0.590678,0 -1.012589,-0.421912 -0.421911,-0.421912 -0.421911,-1.237608 v -5.4286 q 0.02813,-2.869002 2.053304,-4.894184 1.940794,-1.94079 4.978561,-2.08143 z"
     style="fill:#ffffff;fill-opacity:1;stroke-width:0.17568472"
     id="path835"
     inkscape:connector-curvature="0" /><path
     d="m 67.379741,-100.54209 q -0.773505,-0.35159 -1.701711,-0.35159 -1.729839,0 -2.953384,1.223548 -1.223544,1.209481 -1.223544,2.939319 0,1.729839 1.223544,2.953385 1.223545,1.223545 2.953384,1.223545 1.715776,0 2.939319,-1.209482 0.01407,-0.01407 0.02813,-0.02813 0.407849,-0.407849 0.998524,-0.407849 0.590679,0 1.012589,0.421912 0.421912,0.40785 0.421912,0.998526 0,0.590675 -0.421912,1.012587 -0.01406,0.01407 -0.02813,0.02813 -2.039241,2.039241 -4.950434,2.039241 -2.911193,0 -4.964497,-2.053304 -2.053304,-2.053307 -2.053304,-4.964497 0,-2.911193 2.053304,-4.964501 2.053304,-2.0533 4.964497,-2.0533 2.911193,0 4.950434,2.03924 l -0.01407,0.0141 q 0,0.014 0.01407,0.014 0.407847,0.40784 0.407847,0.99852 0,0.57661 -0.407847,0.98446 l -4.022228,3.9941 q -0.421912,0.407849 -1.012588,0.407849 -0.604741,0 -1.026653,-0.407849 -0.407848,-0.421912 -0.407848,-1.026651 0,-0.590678 0.407848,-1.01259 z"
     style="fill:#ffffff;fill-opacity:1;stroke-width:0.17568472"
     id="path837"
     inkscape:connector-curvature="0" /><path
     d="m 81.105942,-103.76268 q 0.590676,0 1.012589,0.42191 0.421911,0.42191 0.421911,1.0126 0,0.59067 -0.421911,1.01258 -0.421913,0.42191 -1.012589,0.42191 h -0.01407 q -1.729839,0 -2.953384,1.223548 -1.125098,1.111036 -1.209481,2.658045 0.01406,0.126574 0.01406,0.253148 v 5.428601 q 0,0.787568 -0.421912,1.20948 -0.421912,0.421912 -1.01259,0.421912 -0.590676,0 -1.012588,-0.421912 -0.421912,-0.421912 -0.421912,-1.237608 v -5.4286 q 0.02813,-2.869002 2.053304,-4.894184 1.940795,-1.94079 4.978561,-2.08143 z"
     style="fill:#ffffff;fill-opacity:1;stroke-width:0.17568472"
     id="path839"
     inkscape:connector-curvature="0" /></g>

<g
   id="g24"
   transform="matrix(0.25720286,0,0,0.26052371,-48.493287,87.349586)"
   style="fill:#ffffff"><path
     d="m 0,0 c 0,-1.964 -1.592,-3.556 -3.556,-3.556 h -7.829 c -1.963,0 -3.554,1.592 -3.554,3.556 v 44.927 c 0,1.964 1.591,3.556 3.554,3.556 h 7.829 C -1.592,48.483 0,46.891 0,44.927 Z m -17.738,-9.813 c 0,-1.964 -1.592,-3.556 -3.556,-3.556 h -7.829 c -1.964,0 -3.556,1.592 -3.556,3.556 v 65.171 c 0,1.964 1.592,3.556 3.556,3.556 h 7.829 c 1.964,0 3.556,-1.592 3.556,-3.556 z m -17.689,5.035 c 0,-1.963 -1.592,-3.555 -3.555,-3.555 h -7.83 c -1.963,0 -3.555,1.592 -3.555,3.555 v 54.772 c 0,1.964 1.592,3.555 3.555,3.555 h 7.83 c 1.963,0 3.555,-1.591 3.555,-3.555 z m 1.743,122.531 c -6.72,0 -13.263,-0.751 -19.548,-2.17 0.07,-0.281 0.119,-0.571 0.119,-0.874 V 7.878 c 0,-2.248 -1.822,-4.07 -4.07,-4.07 h -7.913 c -1.722,0 -3.117,1.396 -3.117,3.117 V 110.75 c -31.153,-13.245 -52.97,-43.861 -52.97,-79.52 0,-47.785 39.175,-86.523 87.499,-86.523 48.325,0 87.498,38.738 87.498,86.523 0,47.786 -39.173,86.523 -87.498,86.523"
     style="fill:#ffffff;fill-opacity:1;fill-rule:nonzero;stroke:none"
     id="path26"
     inkscape:connector-curvature="0" /></g><path
   style="fill:#ffffff;fill-opacity:1;stroke-width:0.09473348"
   d="m -27.673275,107.07144 h 0.445633 V 83.452917 h -0.445633 z"
   id="rect63"
   inkscape:connector-curvature="0" /></g></svg>